<svg xmlns="http://www.w3.org/2000/svg" version="1.1" xmlns:xlink="http://www.w3.org/1999/xlink" width="1000" height="1000">
  <rect width="1000" height="1000" rx="350" fill="#171717"></rect>
  <g transform="translate(500 350) scale(8.5) translate(-50 -30)">
    <path fill="#ec5800" d="M11.5 28.8h76.8L50.7 86.4q-.8.8-1.6 0L11.5 28.8z"></path>
    <path fill="#fff" d="M11.5 29.3q0-19.2.8-19.2l18.4 19.2c-0.1-0.1-6.5-0.1-19.2-0z"></path>
    <path fill="#fff" d="M88.3 29.3q0-19.2-.8-19.2L69.1 29.3c0.1-0.1 6.5-0.1 19.2-0z"></path>
    <path fill="#fff" d="M40.9 75.8h18l-7.9 11q-1.1 1-2.2 0l-7.9-11z"></path>
  </g>
</svg>
